<svg xmlns="http://www.w3.org/2000/svg" xmlns:xlink="http://www.w3.org/1999/xlink" version="1.1" width="940" height="788" viewBox="0 0 940 788" xml:space="preserve">
<desc>Created with Fabric.js 3.5.0</desc>
<defs>
</defs>
<rect x="0" y="0" width="100%" height="100%" fill="rgba(255,255,255,0)"/>
<g transform="matrix(1 0 0 1 470 394)" style="" id="346097">
		
<path xml:space="preserve" font-family="Lato" font-size="600" font-style="normal" font-weight="bold" style="stroke: none; stroke-width: 1; stroke-dasharray: none; stroke-linecap: butt; stroke-dashoffset: 0; stroke-linejoin: miter; stroke-miterlimit: 4; is-custom-font: none; font-file-url: none; fill: rgb(255,255,255); fill-rule: nonzero; opacity: 1; white-space: pre;" d="M-360.30-119.32L-286.20-119.32L-286.20 76.28Q-286.20 104.48-273.15 119.93Q-260.10 135.38-234.00 135.38L-234.00 135.38Q-214.80 135.38-198.00 126.83Q-181.20 118.28-166.20 103.28L-166.20 103.28L-166.20-119.32L-92.10-119.32L-92.10 188.48L-137.40 188.48Q-151.80 188.48-156.30 174.98L-156.30 174.98L-161.40 150.38Q-171.00 159.98-181.20 167.93Q-191.40 175.88-202.95 181.43Q-214.50 186.98-227.85 190.13Q-241.20 193.28-256.50 193.28L-256.50 193.28Q-281.70 193.28-301.05 184.73Q-320.40 176.18-333.60 160.58Q-346.80 144.98-353.55 123.53Q-360.30 102.08-360.30 76.28L-360.30 76.28L-360.30-119.32ZM33.60-245.32L33.60-245.32Q39.00-245.32 42.60-244.87Q46.20-244.42 49.05-243.07Q51.90-241.72 54.60-239.17Q57.30-236.62 60.60-232.42L60.60-232.42L288.30 57.68Q287.10 47.18 286.65 37.13Q286.20 27.08 286.20 18.38L286.20 18.38L286.20-245.32L357.30-245.32L357.30 188.48L315.60 188.48Q306.00 188.48 299.70 185.48Q293.40 182.48 287.40 174.68L287.40 174.68L60.60-114.22Q61.50-104.62 61.95-95.17Q62.40-85.72 62.40-77.92L62.40-77.92L62.40 188.48L-8.70 188.48L-8.70-245.32L33.60-245.32Z"/></g>
</svg>