<?xml version="1.0" standalone="no"?>
<!DOCTYPE svg PUBLIC "-//W3C//DTD SVG 20010904//EN"
 "http://www.w3.org/TR/2001/REC-SVG-20010904/DTD/svg10.dtd">
<svg version="1.0" xmlns="http://www.w3.org/2000/svg"
 width="32.000000pt" height="32.000000pt" viewBox="0 0 32.000000 32.000000"
 preserveAspectRatio="xMidYMid meet">

<g transform="translate(0.000000,32.000000) scale(0.100000,-0.100000)"
fill="#000000" stroke="none">
<path d="M181 158 c1 -93 6 -87 11 15 2 37 0 67 -4 67 -4 0 -7 -37 -7 -82z"/>
<path d="M280 173 l-1 -68 -35 58 c-49 79 -55 65 -7 -17 51 -89 63 -86 63 14
0 47 -4 80 -10 80 -6 0 -10 -29 -10 -67z"/>
<path d="M20 159 c0 -22 5 -49 10 -60 12 -21 54 -26 66 -8 4 8 9 7 15 -2 5 -9
8 11 7 51 -1 64 -1 65 -7 16 -6 -51 -26 -74 -55 -63 -12 5 -16 19 -16 57 0 27
-4 50 -10 50 -5 0 -10 -18 -10 -41z"/>
</g>
</svg>
